<?xml version="1.0" encoding="utf-8"?>
<!-- Generator: Adobe Illustrator 21.1.0, SVG Export Plug-In . SVG Version: 6.00 Build 0)  -->
<svg version="1.1" id="Слой_1" xmlns="http://www.w3.org/2000/svg" xmlns:xlink="http://www.w3.org/1999/xlink" x="0px" y="0px"
	 viewBox="0 0 38.6 13.1" style="enable-background:new 0 0 38.6 13.1;" xml:space="preserve">
<style type="text/css">
	.st0{fill:#7D7D7D;}
</style>
<g>
	<g id="g5230_2_" transform="translate(1712.7501,396.94465)">
		<path id="path5232_2_" class="st0" d="M-1705.6-396.7l-7.2,12.8h13.8l7.2-12.8H-1705.6z"/>
		<g id="g5234_2_" transform="matrix(0.34051609,0,0,0.35174261,-1467.5839,2510.8901)">
			<path id="path5236_2_" class="st0" d="M-656.4-8266.9v0.6v35.3v0.6h0.6h4h0.6v-0.6v-1.5c1.7,1.8,3.9,2.7,6.5,2.7
				c3.2,0,6-1.3,8.3-3.8c2.3-2.5,3.4-6.1,3.4-10.6c0-1.9-0.3-3.7-0.8-5.4c-0.5-1.7-1.3-3.1-2.2-4.4c-1-1.2-2.2-2.2-3.7-2.9
				c-1.5-0.7-3.1-1-4.7-1c-2.5,0-4.6,0.9-6.4,2.5v-11v-0.6h-0.6h-4.3H-656.4L-656.4-8266.9z M-644.8-8253c1.7,0,3.1,0.7,4.3,2.2
				c1.2,1.4,1.8,3.7,1.8,7c0,3.2-0.7,5.5-1.9,7l0,0c-1.3,1.5-2.7,2.2-4.4,2.2c-2.1,0-3.7-1-5-3.1c-0.7-1.2-1.2-3.3-1.2-6.3
				c0-3,0.7-5.2,1.9-6.7C-647.9-8252.3-646.5-8253-644.8-8253L-644.8-8253z"/>
			<path id="path5238_2_" class="st0" d="M-617.9-8257.8c-2.3,0-4.4,0.5-6.4,1.6c-2,1.1-3.5,2.8-4.4,5c-1,2.2-1.4,4.7-1.4,7.5
				c0,4.4,1.1,7.8,3.4,10.3c2.2,2.4,5.3,3.6,8.9,3.6c2.9,0,5.4-0.9,7.5-2.6c2-1.8,3.3-4.2,3.8-7.3l0.1-0.6l-0.6-0.1l-4.3-0.6
				l-0.6-0.1l-0.1,0.6c-0.3,2.1-1,3.5-2,4.4c-1,0.9-2.3,1.4-3.8,1.4c-2,0-3.5-0.7-4.7-2.1c-1.2-1.4-1.8-3.7-1.8-7.1
				c0-3.3,0.7-5.6,1.9-7c1.3-1.4,2.8-2.1,4.9-2.1c1.3,0,2.4,0.4,3.3,1.2c0.9,0.8,1.6,1.9,1.9,3.5l0.1,0.6l0.6-0.1l4.2-0.7l0.6-0.1
				l-0.1-0.6c-0.5-2.7-1.7-4.9-3.6-6.4C-612.6-8257-615-8257.8-617.9-8257.8z"/>
		</g>
	</g>
</g>
</svg>
