<?xml version="1.0" encoding="utf-8"?>
<!-- Generator: Adobe Illustrator 21.1.0, SVG Export Plug-In . SVG Version: 6.00 Build 0)  -->
<svg version="1.1" id="Слой_1" xmlns="http://www.w3.org/2000/svg" xmlns:xlink="http://www.w3.org/1999/xlink" x="0px" y="0px"
	 viewBox="0 0 44 44" style="enable-background:new 0 0 44 44;" xml:space="preserve">
<style type="text/css">
	.st0{fill:#7D7D7D;}
</style>
<g>
	<path class="st0" d="M28.3,20.4c-0.6,0-1.1,0.3-1.5,0.8c-0.4,0.5-0.7,1.3-0.7,2.4c0,1.1,0.1,1.8,0.4,2.2c0.4,0.7,1,1.1,1.7,1.1
		c0.6,0,1.1-0.2,1.5-0.8l0,0c0.4-0.5,0.7-1.3,0.7-2.4c0-1.1-0.2-2-0.6-2.5C29.4,20.6,28.9,20.4,28.3,20.4z"/>
	<path class="st0" d="M22,0C9.8,0,0,9.8,0,22s9.8,22,22,22s22-9.8,22-22S34.2,0,22,0z M16.5,28.5H2.7l7.2-12.8h13.8L16.5,28.5z
		 M31.2,27.2c-0.8,0.9-1.7,1.3-2.8,1.3c-0.9,0-1.6-0.3-2.2-0.9v0.5v0.2h-0.2h-1.4h-0.2v-0.2V15.7v-0.2h0.2H26h0.2v0.2v3.9
		c0.6-0.6,1.3-0.9,2.2-0.9c0.6,0,1.1,0.1,1.6,0.4c0.5,0.2,0.9,0.6,1.3,1c0.3,0.4,0.6,0.9,0.8,1.5c0.2,0.6,0.3,1.2,0.3,1.9
		C32.3,25.1,32,26.3,31.2,27.2z M40,27.6c-0.7,0.6-1.6,0.9-2.5,0.9c-1.2,0-2.3-0.4-3-1.3c-0.8-0.9-1.1-2.1-1.1-3.6
		c0-1,0.2-1.9,0.5-2.6c0.3-0.8,0.8-1.4,1.5-1.7c0.7-0.4,1.4-0.6,2.2-0.6c1,0,1.8,0.3,2.5,0.8c0.6,0.5,1.1,1.3,1.2,2.2l0,0.2L41,22
		l-1.4,0.2l-0.2,0l0-0.2c-0.1-0.6-0.4-1-0.7-1.2c-0.3-0.3-0.7-0.4-1.1-0.4c-0.7,0-1.2,0.2-1.7,0.8c-0.4,0.5-0.6,1.3-0.6,2.5
		c0,1.2,0.2,2,0.6,2.5c0.4,0.5,0.9,0.7,1.6,0.7c0.5,0,1-0.2,1.3-0.5c0.3-0.3,0.6-0.8,0.7-1.6l0-0.2l0.2,0l1.5,0.2l0.2,0l0,0.2
		C41.1,26.1,40.7,27,40,27.6z"/>
</g>
</svg>
