<?xml version="1.0" encoding="utf-8"?>
<!-- Generator: Adobe Illustrator 21.1.0, SVG Export Plug-In . SVG Version: 6.00 Build 0)  -->
<svg version="1.1" id="Слой_1" xmlns="http://www.w3.org/2000/svg" xmlns:xlink="http://www.w3.org/1999/xlink" x="0px" y="0px"
	 viewBox="0 0 39.8 32.2" style="enable-background:new 0 0 39.8 32.2" xml:space="preserve">
<style type="text/css">
	.st0{fill:#D9974C; transform: scale(0.5) translate(19.9px, 16.1px);}
	.st1{stroke: none;}
</style>

<circle class="st1" cx="19.9" cy="16.1" r="15.6" fill="none" stroke="#D9974C" stroke-width="1.5%" />

<g>
	<g>
		<path class="st0" d="M38.8,3.6c0,2-1.6,3.6-3.6,3.6H3.6C1.6,7.2,0,5.6,0,3.6l0,0C0,1.6,1.6,0,3.6,0h31.6C37.2,0,38.8,1.6,38.8,3.6
			L38.8,3.6z"/>
		<path class="st0" d="M38.8,15.6c0,2-1.6,3.6-3.6,3.6H3.6c-2,0-3.6-1.6-3.6-3.6l0,0c0-2,1.6-3.6,3.6-3.6h31.6
			C37.2,12,38.8,13.6,38.8,15.6L38.8,15.6z"/>
		<path class="st0" d="M38.8,27.6c0,2-1.6,3.6-3.6,3.6H3.6c-2,0-3.6-1.6-3.6-3.6l0,0c0-2,1.6-3.6,3.6-3.6h31.6
			C37.2,24,38.8,25.6,38.8,27.6L38.8,27.6z"/>
	</g>
</g>
</svg>
