<?xml version="1.0" encoding="utf-8"?>
<!-- Generator: Adobe Illustrator 21.1.0, SVG Export Plug-In . SVG Version: 6.00 Build 0)  -->
<svg version="1.1" id="Слой_1" xmlns="http://www.w3.org/2000/svg" xmlns:xlink="http://www.w3.org/1999/xlink" x="0px" y="0px"
	 viewBox="0 0 71 71" style="enable-background:new 0 0 71 71;" xml:space="preserve">
<style type="text/css">
	.st0{fill:none;stroke:#FFFFFF;stroke-miterlimit:10;}
</style>
<g>
	<ellipse transform="matrix(0.7071 -0.7071 0.7071 0.7071 -14.7046 35.5)" class="st0" cx="35.5" cy="35.5" rx="35" ry="35"/>
	<g>
		<path class="st0" d="M41.5,28.3l-7.3,7.3c-0.9,0.9-2.3,1.1-3.1,0.3c-0.7-0.7-0.6-2.1,0.3-3.1l6.8-6.8"/>
		<path class="st0" d="M50.1,23.4l-0.7,0.7c-0.9,0.9-2.5,0.9-3.4,0L45.8,24l-0.3-0.3c-0.7-0.7-2.1-0.6-3.1,0.3l0,0L41,25.4
			c-0.9,0.9-2.3,1.1-3.1,0.3c-0.7-0.7-0.6-2.1,0.3-3.1l4.6-4.6c3.5-3.5,9.1-3.5,12.6,0s3.5,9.1,0,12.6c-0.4,0.4-0.8,0.7-1.2,1
			c0.4-0.8,0.4-1.8-0.2-2.3c-0.7-0.7-2.1-0.6-3.1,0.3L49.6,31c0.9-0.9,1.1-2.3,0.3-3.1c-0.7-0.7-2.1-0.6-3.1,0.3l-1.4,1.4
			c0.9-0.9,1.1-2.3,0.3-3.1c-0.7-0.7-2.1-0.6-3.1,0.3l-1.6,1.6"/>
		<g>
			<path class="st0" d="M51,29.6c0.9-0.9,2.3-1.1,3.1-0.3s0.6,2.1-0.3,3.1l-2.5,2.5c-0.9,0.9-2.3,1.1-3.1,0.3
				c-0.7-0.7-0.6-2.1,0.3-3.1L51,29.6z"/>
			<path class="st0" d="M46.9,28.3c0.9-0.9,2.3-1.1,3.1-0.3c0.7,0.7,0.6,2.1-0.3,3.1l-2.5,2.5c-0.9,0.9-2.3,1.1-3.1,0.3
				c-0.7-0.7-0.6-2.1,0.3-3.1L46.9,28.3z"/>
			<path class="st0" d="M42.8,26.9c0.9-0.9,2.3-1.1,3.1-0.3c0.7,0.7,0.6,2.1-0.3,3.1L43,32.2c-0.9,0.9-2.3,1.1-3.1,0.3
				c-0.7-0.7-0.6-2.1,0.3-3.1L42.8,26.9z"/>
		</g>
	</g>
	<path class="st0" d="M32.3,45.5l7.1-7.1c0.9-0.9,1.1-2.3,0.3-3.1c-0.7-0.7-2.1-0.6-3.1,0.3l-6.1,6.1c0.9-0.9,1.1-2.3,0.3-3.1
		c-0.7-0.7-2.1-0.6-3.1,0.3l-1.4,1.4c0.9-0.9,1.1-2.3,0.3-3.1c-0.7-0.7-2.1-0.6-3.1,0.3L22.4,39c0.9-0.9,1.1-2.3,0.3-3.1
		c-0.7-0.7-2.1-0.6-3.1,0.3l-2.5,2.5c-0.2,0.2-1.3,1.3-1.7,1.7c-3.5,3.5-3.5,9.1,0,12.6s9.1,3.5,12.6,0l4.2-4.2
		C33.5,47.6,32.3,45.5,32.3,45.5z"/>
</g>
</svg>
