<?xml version="1.0" encoding="utf-8"?>
<!-- Generator: Adobe Illustrator 21.1.0, SVG Export Plug-In . SVG Version: 6.00 Build 0)  -->
<svg version="1.1" id="Слой_1" xmlns="http://www.w3.org/2000/svg" xmlns:xlink="http://www.w3.org/1999/xlink" x="0px" y="0px"
	 viewBox="0 0 19.1 20.1" style="enable-background:new 0 0 19.1 20.1;" xml:space="preserve">
<style type="text/css">
	.st0{fill:#7D7D7D;}
</style>
<g>
	<g>
		<path class="st0" d="M13.9,6L3.1,0.3C2.5-0.1,1.9-0.1,1.4,0.1l9.2,9.2L13.9,6z"/>
		<path class="st0" d="M18,8.2l-3.1-1.7l-3.5,3.5l3.5,3.5l3.1-1.7C19.4,11.1,19.4,9,18,8.2z"/>
		<path class="st0" d="M0.5,0.7C0.2,1.1,0,1.5,0,2.1V18c0,0.6,0.2,1,0.5,1.4l9.4-9.4L0.5,0.7z"/>
		<path class="st0" d="M1.4,20c0.5,0.2,1.1,0.2,1.7-0.1l10.8-5.8l-3.3-3.3L1.4,20z"/>
	</g>
</g>
</svg>
