<?xml version="1.0" encoding="utf-8"?>
<!-- Generator: Adobe Illustrator 21.1.0, SVG Export Plug-In . SVG Version: 6.00 Build 0)  -->
<svg version="1.1" id="Слой_1" xmlns="http://www.w3.org/2000/svg" xmlns:xlink="http://www.w3.org/1999/xlink" x="0px" y="0px"
	 viewBox="0 0 44 44" style="enable-background:new 0 0 44 44;" xml:space="preserve">
<style type="text/css">
	.st0{fill:#7D7D7D;}
</style>
<path class="st0" d="M22,0C9.8,0,0,9.8,0,22s9.8,22,22,22s22-9.8,22-22S34.2,0,22,0z M17.3,12.2L28.2,18l-3.3,3.3l-9.2-9.2
	C16.2,11.9,16.8,11.9,17.3,12.2z M14.3,30V14c0-0.6,0.2-1,0.5-1.4l9.4,9.4l-9.4,9.4C14.5,31,14.3,30.5,14.3,30z M17.3,31.8
	c-0.6,0.3-1.2,0.3-1.7,0.1l9.2-9.2l3.3,3.3L17.3,31.8z M32.2,23.8l-3.1,1.7L25.6,22l3.5-3.5l3.1,1.7C33.7,20.9,33.7,23.1,32.2,23.8z
	"/>
</svg>
