<?xml version="1.0" encoding="utf-8"?>
<!-- Generator: Adobe Illustrator 21.1.0, SVG Export Plug-In . SVG Version: 6.00 Build 0)  -->
<svg version="1.1" id="Слой_1" xmlns="http://www.w3.org/2000/svg" xmlns:xlink="http://www.w3.org/1999/xlink" x="0px" y="0px"
	 viewBox="0 0 23.9 16" style="enable-background:new 0 0 23.9 16;" xml:space="preserve">
<style type="text/css">
	.st0{fill:#7D7D7D;}
</style>
<g>
	<g>
		<polygon class="st0" points="22,6.5 22,4.5 20,4.5 20,6.5 18,6.5 18,8.5 20,8.5 20,10.5 22,10.5 22,8.5 23.9,8.5 23.9,6.5 		"/>
		<path class="st0" d="M8.1,6.5v3h4.7c-0.8,2.6-3.6,4-6.2,3.2C4,11.8,2.5,9,3.4,6.4s3.6-4,6.2-3.2c0.7,0.2,1.4,0.7,2,1.2l2.1-2.1
			c-3.1-3.1-8.2-3.1-11.3,0s-3.1,8.2,0,11.3s8.2,3.1,11.3,0c1.9-1.9,2.7-4.6,2.2-7.2H8.1z"/>
	</g>
</g>
</svg>
