<?xml version="1.0" encoding="utf-8"?>
<!-- Generator: Adobe Illustrator 21.1.0, SVG Export Plug-In . SVG Version: 6.00 Build 0)  -->
<svg version="1.1" id="Слой_1" xmlns="http://www.w3.org/2000/svg" xmlns:xlink="http://www.w3.org/1999/xlink" x="0px" y="0px"
	 viewBox="0 0 44 44" style="enable-background:new 0 0 44 44;" xml:space="preserve">
<style type="text/css">
	.st0{fill:#7D7D7D;}
</style>
<g>
	<path class="st0" d="M22,17c-3,0-5.4,2.4-5.4,5.4s2.4,5.4,5.4,5.4c3,0,5.4-2.4,5.4-5.4S25,17,22,17z M22,27.1
		c-2.6,0-4.7-2.1-4.7-4.8s2.1-4.8,4.7-4.8s4.8,2.1,4.8,4.8S24.6,27.1,22,27.1z"/>
	<ellipse class="st0" cx="22.1" cy="22.3" rx="3.5" ry="3.5"/>
	<path class="st0" d="M27.5,17.3c1,0,1.7,0,2.7,0c0.3,0,0.7-0.4,0.7-0.7v-2.7c0-0.3-0.4-0.7-0.7-0.7c-1,0-1.8,0-2.7,0
		c-0.3,0-0.7,0.3-0.7,0.7c0,0.9,0,1.9,0,2.7C26.8,16.9,27.2,17.3,27.5,17.3z"/>
	<path class="st0" d="M22,0C9.8,0,0,9.8,0,22s9.8,22,22,22s22-9.8,22-22S34.2,0,22,0z M28.9,32.9c-3.4,0-11.6,0-13.9,0
		c-1.7,0-3.5-1.9-3.5-3.6c0-1.7,0-6.4,0-10.1h5.7l0.6-0.7h-6.4c0-1.1,0-2.8,0-3.3c0-0.9,0.6-1.9,1.5-2.6v5.3H17v-6.1
		c3.5,0,9.8,0,11.9,0c0,0,0.1,0,0.1,0c1.7,0,3.5,1.8,3.5,3.4c0,0.7,0,2.1,0,3.3h-6.4l0.6,0.7h5.7c0,3.3,0,7.2,0,10.1
		C32.6,31.2,30.8,32.9,28.9,32.9z"/>
</g>
</svg>
