<?xml version="1.0" encoding="utf-8"?>
<!-- Generator: Adobe Illustrator 21.1.0, SVG Export Plug-In . SVG Version: 6.00 Build 0)  -->
<svg version="1.1" id="Слой_1" xmlns="http://www.w3.org/2000/svg" xmlns:xlink="http://www.w3.org/1999/xlink" x="0px" y="0px"
	 viewBox="0 0 21.2 21.2" style="enable-background:new 0 0 21.2 21.2;" xml:space="preserve">
<style type="text/css">
	.st0{fill:#7D7D7D;}
</style>
<g>
	<path id="rect2989-1_2_" class="st0" d="M17.6,0C17.6,0,17.6,0,17.6,0c-2.2,0.1-8.6,0-12,0v6.1H1.5V0.8C0.6,1.5,0,2.5,0,3.5
		c0,0.5,0,2.1,0,3.3h6.4L5.7,7.4H0c0,3.7,0,8.5,0,10.1c0,1.7,1.8,3.6,3.5,3.6c2.3,0,10.5,0,13.9,0c1.9,0,3.7-1.7,3.7-3.6
		c0-2.9,0-6.8,0-10.1h-5.7l-0.6-0.7h6.4c0-1.1,0-2.6,0-3.3C21.1,1.8,19.4,0,17.6,0L17.6,0z M16.1,1.5c0.9,0,1.7,0,2.7,0
		c0.3,0,0.7,0.4,0.7,0.7v2.7c0,0.3-0.4,0.7-0.7,0.7c-0.9,0-1.7,0-2.7,0c-0.3,0-0.7-0.3-0.7-0.7c0-0.8,0-1.8,0-2.7
		C15.4,1.8,15.8,1.5,16.1,1.5z M10.6,5.2c3,0,5.4,2.4,5.4,5.4S13.6,16,10.6,16s-5.4-2.4-5.4-5.4S7.6,5.2,10.6,5.2z M10.6,5.8
		c-2.6,0-4.7,2.1-4.7,4.8c0,2.6,2.1,4.8,4.7,4.8s4.8-2.1,4.8-4.8S13.2,5.8,10.6,5.8L10.6,5.8z M10.6,7c2,0,3.5,1.6,3.5,3.5
		s-1.6,3.5-3.5,3.5s-3.5-1.6-3.5-3.5S8.7,7,10.6,7L10.6,7z"/>
</g>
</svg>
