<?xml version="1.0" encoding="utf-8"?>
<!-- Generator: Adobe Illustrator 21.1.0, SVG Export Plug-In . SVG Version: 6.00 Build 0)  -->
<svg version="1.1" id="Слой_1" xmlns="http://www.w3.org/2000/svg" xmlns:xlink="http://www.w3.org/1999/xlink" x="0px" y="0px"
	 viewBox="0 0 17.2 21.9" style="enable-background:new 0 0 17.2 21.9;" xml:space="preserve">
<style type="text/css">
	.st0{fill:#7D7D7D;}
</style>
<g>
	<g id="black_2_">
		<g id="slice_3_" transform="translate(-901.000000, -600.000000)">
		</g>
		<g id="itunes_2_" transform="translate(16.000000, 14.000000)">
			<path class="st0" d="M-9.8-10.6c0,0,2.4-1.4,5.1-2.2c2.6-0.9,5.9-1.2,5.9-1.2V0.5c0,1.1-0.1,2-0.4,2.6C0.5,3.6,0,4.1-0.7,4.5
				C-1.4,4.9-2.2,5-3,5c-1,0-1.8-0.3-2.4-0.9s-0.9-1.3-0.9-2.2C-6.4,1-6,0.2-5.3-0.4s1.6-1,2.8-1c0.4,0,0.7,0,1,0.1
				c0.3,0.1,0.7,0.2,1.4,0.5v-8.3c0,0-1.7,0-3.8,0.7s-4.4,1.9-4.4,1.9v9.8c0,1.1-0.1,2-0.4,2.6S-9.7,7-10.4,7.4
				c-0.7,0.4-1.5,0.6-2.4,0.6c-1,0-1.8-0.3-2.4-0.9C-15.7,6.5-16,5.8-16,4.8c0-1,0.4-1.8,1.1-2.4c0.7-0.7,1.6-1,2.8-1
				c0.7,0,1.5,0.2,2.4,0.6V-10.6z"/>
		</g>
	</g>
</g>
</svg>
