<?xml version="1.0" encoding="utf-8"?>
<!-- Generator: Adobe Illustrator 21.1.0, SVG Export Plug-In . SVG Version: 6.00 Build 0)  -->
<svg version="1.1" id="Слой_1" xmlns="http://www.w3.org/2000/svg" xmlns:xlink="http://www.w3.org/1999/xlink" x="0px" y="0px"
	 viewBox="0 0 44 44" style="enable-background:new 0 0 44 44;" xml:space="preserve">
<style type="text/css">
	.st0{fill:#7D7D7D;}
</style>
<path class="st0" d="M22,0C9.8,0,0,9.8,0,22s9.8,22,22,22s22-9.8,22-22S34.2,0,22,0z M29.3,24.8c0,1.1-0.1,2-0.4,2.6
	c-0.3,0.6-0.8,1.1-1.5,1.4s-1.5,0.6-2.4,0.6c-1,0-1.8-0.3-2.4-0.9s-0.9-1.3-0.9-2.2c0-0.9,0.4-1.7,1.1-2.4c0.7-0.7,1.6-1,2.8-1
	c0.4,0,0.7,0,1,0.1c0.3,0.1,0.7,0.2,1.4,0.5v-8.3c0,0-1.7,0-3.8,0.7c-2.2,0.7-4.4,1.9-4.4,1.9v9.8c0,1.1-0.1,2-0.4,2.6
	s-0.8,1.1-1.5,1.5c-0.7,0.4-1.5,0.6-2.4,0.6c-1,0-1.8-0.3-2.4-0.9c-0.6-0.6-0.9-1.3-0.9-2.2c0-1,0.4-1.8,1.1-2.4
	c0.7-0.7,1.6-1,2.8-1c0.7,0,1.5,0.2,2.4,0.6V13.8c0,0,2.4-1.4,5.1-2.2c2.6-0.9,5.9-1.2,5.9-1.2V24.8z"/>
</svg>
