<svg version="1.0" xmlns="http://www.w3.org/2000/svg" width="1908.000000pt" height="1908.000000pt" viewBox="0 0 1908.000000 1908.000000">

<g transform="translate(0.000000,1908.000000) scale(0.100000,-0.100000)" fill="#7D7D7D" stroke="none">

<path d="M9080 19069 c-469 -24 -993 -86 -1365 -163 -659 -136 -1084 -260 -1705 -499 -295 -114 -782 -345 -1095 -520 -437 -244 -926 -571 -1280 -854 -242 -193 -272 -218 -463 -390 -244 -219 -423 -394 -585 -573 -73 -79 -170 -185 -217 -235 -89 -95 -205 -233 -304 -363 -32 -42 -82 -106 -110 -142 -68 -85 -288 -392 -358 -500 -151 -233 -222 -346 -288 -460 -40 -69 -93 -159 -117 -200 -84 -142 -352 -695 -441 -910 -286 -689 -448 -1227 -597 -1985 -51 -261 -113 -775 -141 -1175 -27 -389 -11 -1082 37 -1550 13 -132 48 -410 54 -430 2 -8 14 -78 26 -155 28 -186 124 -650 164 -790 8 -27 26 -90 39 -140 162 -595 328 -1041 616 -1650 147 -312 452 -849 618 -1090 42 -60 115 -166 162 -235 145 -212 408 -552 565 -730 31 -36 100 -114 153 -175 282 -322 787 -795 1172 -1097 330 -259 520 -392 905 -635 397 -250 923 -520 1385 -710 454 -187 1099 -391 1515 -478 859 -181 1483 -245 2250 -232 420 7 583 17 937 57 965 110 1880 355 2763 740 187 82 616 293 765 377 327 185 375 214 666 405 282 186 526 368 894 669 114 93 520 472 655 610 312 321 528 571 775 898 256 340 398
546 545 791 38 63 92 153 120 200 187 308 447 844 602 1240 225 576 340 950 462 1507 70 320 98 480 140 803 99 760 106 1504 21 2315 -93 893 -375 1943 -740 2754 -28 61 -72 159 -98 219 -66 144 -221 451 -271 534 -23 37 -41 70 -41 74 0 8 -114 202 -224 379 -385 624 -889 1253 -1427 1780 -157 155 -417 389 -559 505 -37 30 -114 93 -171 140 -236 194 -660 494 -924 654 -326 197 -520 304 -845 463 -849 416 -1762 703 -2690 847 -370 58 -597 81 -965 101 -285 15 -726 17 -985 4z m-60 -843 c0 -2 -22 -11 -49 -20 -27 -9 -135 -59 -240 -111 -105 -52 -193 -95 -196 -95 -4 0 -458 -217 -670 -320 -93 -46 -381 -185 -1080 -522 -159 -77 -371 -178 -470 -225 -98 -47 -188 -91 -200 -98 -11 -8 -110 -55 -220 -105 -110 -51 -229 -107 -265 -126 -63 -32 -308 -151 -555 -269 -66 -32 -258 -124 -427 -206 -169 -82 -309 -149 -312 -149 -2 0 -137 -65 -301 -145 -163 -80 -299 -145 -300 -145 -2 0 -106 -49 -230 -110 -124 -60 -228 -110 -231 -110 -3 0 -37 -18 -75 -41 -39 -22 -75 -39 -82 -36 -15 5 386 411 578 586 811 739 1780 1330 2810 1714 623 232 1369 413 1985 481 466 52 530 58 530 52z m1425 -35 c549 -65 711 -94 1165 -203 787 -190 1577 -507 2275 -912 139 -81 270 -163 465 -293 277 -184 353 -238 490 -348 62 -49 134 -106 160 -125 27 -19 79 -62 117 -95 37 -33 124 -109 193 -168 141 -122 665 -640 652 -645 -12 -4 -231 99 -827 388 -130 63 -326 157 -960 462 -137 66 -385 186 -550 266 -508 246 -931 450 -1145 552 -328 156 -680 325 -890 427 -197 96 -359 174 -525 253 -49 24 -214 104 -365 177 -151 74 -342 166 -425 205 -82 39 -154 75 -160 81 -13 12 108 4 330 -22z m-814 -296 c75 -91 512 -636 585 -731 21 -28 75 -95 119 -149 44 -54 98 -121 120 -149 42 -55 296 -373 350 -440 18 -23 100 -124 181 -226 81 -102 164 -205 184 -230 39 -47 270 -338 455 -574 61 -77 152 -190 203 -253 50 -62 92 -118 92 -124 0 -8 -291 -155 -465 -234 -22 -10 -155 -74 -295 -143 -140 -68 -340 -165 -445 -214 -104 -50 -262 -126 -350 -170 -88 -44 -198 -97 -245 -118 -47 -21 -192 -90 -322 -154 -131 -64 -248 -116 -262 -116 -22 0 -260 116 -1807 884 -295 146 -542 272 -548 280 -10 12 -5 23 27 58 21 24 94 113 162 198 67 84 147 183 176 220 74 90 461 576 564 709 47 59 121 153 166 207 44 55 111 137 148 184 37 47 99 123 136 170 38 47 127 159 199 250 72 91 159 201 195 245 278 347 362 453 434 546 102 133 138 171 155 167 8 -2 47 -43 88 -93z m-732 -234 c-8 -11 -53 -68 -101 -128 -80 -99 -327 -408 -463 -578 -30 -38 -86 -108 -123 -154 -37 -46 -96 -120 -132 -166 -36 -45 -182 -228 -324 -406 -294 -367 -330 -412 -418 -525 -35 -45 -126 -160 -202 -255 -77 -96 -164 -204 -193 -242 -30 -37 -64 -74 -76 -82 -19 -12 -253 -14 -1660 -16 -901 -1 -1639 0 -1641 2 -2 2 114 60 258 129 143 68 401 193 571 276 171 83 360 175 420 204 61 29 209 100 330 157 121 58 317 152 435 208 118 56 458 221 755 365 297 144 623 302 725 350 102 48 283 135 403 194 120 58 220 106 223 106 3 0 87 40 187 89 184 91 827 402 947 459 79 37 98 40 79 13z m1559 -108 c142 -71 363 -177 492 -238 129 -60 294 -139 365 -176 72 -37 157 -78 190 -92 33 -14 182 -85 330 -157 149 -73 425 -206 615 -297 679 -325 828 -397 1080 -520 140 -69 289 -141 330 -160 100 -47 544 -261 798 -384 112 -55 206 -99 208 -99 3 0 110 -51 237 -114 128 -62 268 -130 312 -151 44 -21 87 -43 96 -49 12 -8 -428 -10 -1620 -9 -899 1 -1645 4 -1657 7 -22 6 -79 72 -245 283 -55 70 -134 169 -174 218 -41 50 -120 149 -176 220 -190 241 -1014 1273 -1201 1505 -51 63 -122 153 -157 200 -36 47 -76 97 -90 113 -20 22 -22 27 -8 27 10 0 133 -57 275 -127z m-3690 -2738 c4 -3 -23 -123 -73 -330 -40 -161 -126 -525 -155 -650 -18 -77 -63 -270 -101 -430 -38 -159 -80 -337 -94 -395 -14 -58 -42 -179 -64 -270 -22 -91 -56 -237 -76 -325 -21 -88 -45 -168 -54 -179 -18 -20 -74 -51 -206 -111 -49 -23 -154 -74 -233 -113 -78 -40 -209 -103 -290 -141 -81 -38 -320 -153 -532 -256 -212 -103 -517 -250 -678 -327 -161 -77 -309 -149 -329 -161 -34 -20 -36 -20 -49 -2 -7 9 -18 43 -24 74 -15 77 -56 258 -97 431 -19 80 -47 208 -63 285 -16 77 -42 196 -59 265 -16 69 -41 177 -55 240 -48 222 -128 579 -175 780 -16 69 -32 141 -36 160 -4 19 -31 143 -61 275 -30 132 -66 292 -80 355 -14 63 -39 171 -55 240 -51 222 -119 544 -119 567 0 15 7 23 23 25 33 5 3730 -2 3735 -7z m9262 -4 c0 -4 -10 -21 -22 -37 -34 -44 -922 -1158 -996 -1249 -36 -44 -104 -129 -151 -189 -103 -131 -265 -335 -371 -466 -101 -125 -335 -418 -435 -545 -44 -56 -101 -129 -127 -161 -26 -32 -89 -111 -139 -174 -50 -63 -96 -118 -103 -122 -12 -7 -131 46 -386 169 -289 139 -359 176 -375 193 -17 19 -48 144 -156 630 -27 124 -67 302 -88 395 -22 94 -49 215 -61 270 -11 55 -28 125 -35 155 -8 30 -30 127 -49 215 -52 239 -196 887 -202 908 -5 16 87 17 1845 17 1035 0 1851 -4 1851 -9z m-8932 -60 c15 -10 122 -64 237 -121 116 -56 449 -221 740 -365 292 -144 664 -328 828 -409 163 -81 297 -151 297 -156 0 -5 -9 -12 -20 -15 -26 -8 -901 -431 -1137 -549 -95 -47 -175 -86 -178 -86 -3 0 -108 -50 -233 -111 -125 -61 -262 -126 -305 -145 -43 -19 -151 -71 -240 -117 -89 -45 -209 -105 -267 -131 -58 -27 -156 -73 -219 -102 -104 -49 -113 -52 -108 -31 75 319 139 590 186 782 32 132 80 330 106 440 26 110 62 263 80 340 19 77 66 277 106 445 72 309 84 350 95 350 3 0 18 -8 32 -19z m4972 -58 c6 -32 22 -105 35 -163 13 -58 44 -199 70 -315 26 -115 57 -255 70 -310 13 -55 43 -185 66 -290 59 -273 113 -510 169 -750 59 -251 103 -465 97 -471 -4 -4 -198 89 -1132 541 -77 37 -221 105 -320 152 -99 47 -184 88 -190 93 -10 8 -408 200 -822 397 -134 64 -243 118 -242 122 0 6 34 23 719 354 245 118 560 271 700 338 141 68 332 160 425 204 93 44 201 97 239 117 97 51 102 50 116 -19z m-9485 -41 c9 -52 147 -678 200 -907 24 -104 80 -354 124 -555 45 -201 97 -432 116 -515 19 -82 43 -190 54 -240 11 -49 50 -220 86 -380 74 -326 89 -392 139 -620 71 -320 87 -391 102 -448 l16 -59 -56 -71 c-30 -40 -100 -128 -156 -197 -56 -69 -201 -249 -321 -400 -281 -351 -417 -520 -554 -688 -60 -75 -160 -199 -220 -277 -61 -78 -138 -175 -173 -216 -34 -41 -117 -144 -185 -229 -67 -85 -161 -202 -207 -259 -47 -57 -103 -127 -125 -155 -22 -29 -94 -119 -160 -200 -66 -81 -146 -182 -178 -224 -72 -96 -82 -102 -96 -60 -10 33 -38 196 -65 383 -79 532 -105 1251 -66 1791 76 1042 320 2028 730 2949 123 275 351 709 517 982 88 145 316 489 393 591 60 80 71 81 85 4z m13992 6 c291 -415 546 -837 747 -1238 127 -254 157 -319 259 -565 192 -463 371 -1031 452 -1440 8 -38 26 -124 40 -190 14 -66 30 -149 35 -185 5 -36 21 -141 35 -235 101 -684 120 -1305 60 -2020 -25 -296 -89 -767 -116 -852 -13 -41 -22 -41 -50 0 -28 38 -174 221 -294 367 -47 58 -118 146 -156 195 -75 98 -156 198 -252 314 -34 41 -78 95 -97 121 -37 50 -137 177 -230 290 -56 69 -186 230 -285 355 -197 246 -509 635 -579 720 -77 93 -260 323 -365 459 -25 33 -65 82 -89 110 -50 59 -50 47 -4 241 41 172 148 641 227 995 35 157 80 355 100 440 20 85 56 243 80 350 24 107 98 431 164 720 67 289 135 586 151 660 17 74 41 180 55 235 13 55 29 124 35 153 15 66 30 65 77 0z m-627 -445 c0 -4 -9 -36 -20 -72 -11 -36 -42 -165 -69 -286 -28 -121 -68 -299 -91 -395 -88 -385 -224 -983 -290 -1280 -28 -124 -66 -290 -85 -370 -19 -80 -49 -208 -65 -285 -52 -238 -92 -400 -101 -409 -5 -6 -75 24 -171 71 -90 44 -210 103 -268 131 -413 198 -840 412 -840 421 0 5 5 13 10 16 9 6 362 445 475 591 22 28 65 82 96 120 30 38 172 215 314 394 142 179 273 343 292 365 18 22 60 74 92 115 53 68 447 563 573 720 111 138 148 177 148 153z m-6364 -697 c22 -8 154 -70 294 -139 140 -69 379 -184 530 -257 151 -73 345 -167 430 -208 85 -41 295 -142 465 -224 345 -167 468 -227 825 -398 135 -64 398 -192 585 -282 187 -91 448 -217 580 -281 132 -63 391 -188 575 -277 523 -253 1089 -526 1266 -611 45 -21 87 -45 94 -54 10 -12 8 -31 -8 -97 -12 -46 -40 -166 -62 -268 -23 -102 -57 -248 -75 -325 -19 -77 -37 -156 -40 -175 -11 -57 -125 -557 -234 -1025 -22 -93 -53 -231 -70 -305 -17 -74 -65 -286 -107 -470 -43 -184 -90 -391 -105 -460 -16 -69 -40 -174 -54 -235 -15 -60 -41 -177 -60 -260 -18 -82 -47 -213 -64 -290 -17 -77 -42 -185 -56 -240 -14 -55 -41 -174 -60 -265 -49 -229 -76 -342 -87 -363 -9 -17 -11 -17 -46 4 -20 12 -129 65 -242 119 -381 181 -1297 620 -1565 750 -279 135 -390 188 -595 285 -107 51 -328 157 -490 235 -162 78 -349 167 -415 197 -66 30 -124 59 -130 63 -5 4 -136 67 -290 140 -154 72 -296 141 -315 152 -19 11 -120 60 -225 108 -179 83 -373 176 -1070 512 -159 77 -364 175 -455 218 -91 42 -244 115 -340 163 -225 110 -702 339 -805 387 -100 46 -536 256 -750 360 -243 118 -644 310 -1010 484 -181 87 -368 177 -415 201 -47 24 -125 61 -175 83 -49 22 -202 95 -340 162 -252 123 -421 202 -462 214 -13 4 -23 11 -23 15 0 8 158 88 330 168 52 24 172 82 265 128 94 46 271 131 395 190 124 58 329 158 455 220 260 129 752 365 759 365 2 0 150 71 328 159 178 87 346 168 373 181 28 12 106 50 175 85 69 34 175 85 235 113 61 27 193 91 295 142 102 50 255 124 340 165 85 40 238 113 340 163 179 87 1013 491 1155 558 78 38 95 40 151 20z m-5531 -2997 c533 -258 1116 -539 1120 -539 2 0 97 -46 211 -101 l206 -102 -5 -31 c-3 -17 -15 -71 -26 -121 -11 -49 -35 -160 -54 -245 -19 -85 -73 -321 -120 -525 -47 -203 -104 -453 -127 -555 -22 -102 -56 -250 -75 -330 -18 -80 -52 -224 -74 -320 -23 -96 -52 -229 -66 -295 -14 -66 -48 -212 -75 -325 -26 -113 -69 -299 -95 -415 -26 -115 -63 -275 -81 -354 -19 -79 -37 -168 -41 -198 l-6 -55 -32 5 c-33 5 -81 28 -695 327 -212 103 -511 249 -665 323 -377 182 -562 271 -805 389 -113 55 -356 172 -540 260 -184 88 -340 164 -346 169 -6 5 -71 36 -145 69 -158 71 -169 79 -145 112 30 42 159 203 366 457 113 139 241 299 286 356 44 58 135 171 201 252 67 81 167 207 224 278 56 72 119 150 139 175 20 25 111 137 201 250 91 113 189 234 218 270 101 124 278 345 317 396 21 28 75 96 119 150 45 55 132 162 195 239 120 148 126 155 150 155 8 0 128 -54 265 -121z m11641 -374 c42 -55 102 -129 134 -165 54 -62 487 -600 578 -719 24 -31 77 -96 117 -146 134 -165 399 -496 448 -558 27 -34 93 -116 147 -182 54 -66 137 -169 185 -230 93 -118 200 -251 280 -349 77 -94 138 -176 134 -180 -6 -6 -384 -189 -589 -286 -96 -45 -249 -119 -340 -162 -91 -44 -266 -129 -390 -188 -124 -59 -301 -145 -395 -190 -93 -45 -233 -113 -310 -150 -77 -37 -212 -102 -300 -145 -194 -93 -337 -162 -470 -225 -55 -26 -176 -84 -269 -129 -141 -68 -206 -93 -206 -78 0 1 5 18 10 37 6 19 29 114 51 210 53 231 90 393 133 575 19 83 37 166 41 185 4 19 26 118 51 220 24 102 61 266 83 365 22 99 68 299 101 445 96 417 99 427 130 570 16 74 40 182 54 240 24 100 56 239 181 790 87 382 166 724 171 738 4 13 31 -21 240 -293z m-9656 -578 c80 -38 311 -150 513 -249 203 -98 370 -178 372 -178 2 0 97 -45 210 -100 114 -55 209 -100 211 -100 2 0 105 -49 230 -110 125 -60 229 -110 232 -110 3 0 100 -47 216 -105 184 -91 671 -323 1053 -503 109 -51 120 -59 105 -71 -18 -14 -416 -209 -637 -311 -127 -59 -256 -121 -513 -246 -140 -68 -255 -124 -258 -124 -2 0 -70 -33 -151 -73 -81 -40 -256 -124 -388 -186 -132 -63 -319 -152 -415 -199 -96 -46 -218 -105 -270 -129 -52 -25 -140 -67 -195 -93 -157 -75 -824 -397 -1145 -553 -80 -39 -149 -73 -154 -75 -15 -8 0 94 38 253 50 211 124 532 199 865 36 157 88 386 117 510 28 124 62 275 76 335 13 61 35 157 49 215 13 58 35 157 49 220 14 63 41 185 61 270 45 193 147 637 181 790 33 148 30 141 51 133 10 -3 83 -37 163 -76z m3558 -1706 c20 -11 171 -84 335 -162 164 -79 301 -147 303 -151 3 -5 -30 -52 -73 -105 -43 -53 -105 -130 -137 -172 -33 -42 -80 -101 -105 -132 -76 -94 -177 -220 -228 -285 -91 -117 -254 -319 -316 -392 -34 -41 -82 -102 -107 -137 -25 -34 -110 -143 -190 -241 -80 -98 -157 -195 -172 -214 -56 -73 -365 -461 -538 -675 -119 -147 -699 -873 -735 -919 -21 -28 -137 -173 -257 -323 -119 -150 -254 -321 -300 -380 -45 -59 -107 -137 -138 -173 -31 -36 -117 -141 -191 -235 -148 -187 -414 -522 -545 -685 -46 -58 -116 -146 -156 -197 -40 -50 -102 -128 -138 -173 l-65 -82 -13 32 c-7 17 -19 63 -27 103 -8 40 -31 140 -50 222 -19 83 -57 251 -85 375 -28 124 -64 281 -80 350 -16 69 -43 184 -59 255 -16 72 -52 227 -79 345 -27 118 -60 260 -72 315 -22 102 -117 518 -170 745 -16 69 -59 258 -95 420 -36 162 -74 329 -85 370 -10 41 -21 93 -24 115 l-7 40 188 89 c104 49 334 160 513 247 179 86 469 225 645 309 494 236 1023 490 1435 690 206 100 539 260 740 355 358 170 876 416 955 454 51 25 77 26 123 2z m1052 -506 c83 -40 229 -111 900 -433 245 -117 591 -283 820 -392 124 -59 347 -166 495 -237 149 -72 306 -147 350 -168 44 -21 170 -81 280 -135 110 -53 281 -135 380 -180 99 -46 187 -90 196 -97 13 -11 15 -22 9 -46 -57 -242 -130 -574 -179 -818 -17 -79 -44 -204 -61 -278 -17 -74 -47 -212 -66 -305 -19 -94 -50 -238 -69 -321 -18 -82 -52 -238 -75 -345 -22 -107 -56 -265 -75 -350 -19 -85 -50 -231 -70 -325 -103 -491 -175 -809 -183 -817 -5 -5 -39 31 -78 79 -242 302 -328 406 -636 772 -62 74 -167 200 -232 280 -66 80 -144 175 -175 211 -31 36 -74 88 -96 115 -37 48 -306 373 -582 704 -295 355 -408 491 -471 570 -37 47 -97 119 -133 160 -36 42 -85 101 -110 132 -24 31 -105 129 -179 218 -74 89 -175 210 -223 269 -49 59 -148 179 -220 267 -73 87 -178 216 -235 285 -56 69 -126 153 -155 187 -28 34 -51 69 -49 78 2 9 53 78 114 153 114 141 310 386 477 597 52 66 117 146 144 177 56 65 41 66 187 -7z m-8705 -324 c83 -41 209 -102 280 -137 458 -220 621 -299 979 -473 158 -78 290 -141 292 -141 2 0 132 -63 290 -140 158 -77 288 -140 290 -140 2 0 54 -25 116 -56 62 -31 194 -94 293 -141 99 -46 188 -92 199 -101 31 -28 43 -63 70 -192 24 -121 53 -250 151 -675 25 -110 66 -288 90 -395 24 -107 62 -274 85 -370 22 -96 54 -231 70 -300 42 -182 82 -362 145 -650 31 -140 67 -298 80 -350 42 -167 67 -280 63 -292 -3 -7 -12 -1 -22 13 -60 83 -110 148 -271 348 -171 212 -241 300 -375 471 -32 41 -102 129 -155 195 -53 66 -119 147 -145 180 -27 33 -123 155 -215 270 -92 116 -181 228 -199 250 -46 57 -370 463 -571 715 -94 118 -252 316 -351 440 -98 124 -208 263 -244 310 -36 46 -83 105 -106 130 -22 25 -66 79 -97 120 -31 41 -84 109 -117 150 -34 41 -90 111 -125 155 -36 44 -93 115 -127 158 -35 43 -92 116 -128 161 -36 46 -112 143 -170 215 -58 73 -132 167 -165 210 -33 42 -72 92 -87 110 -16 18 -28 37 -28 42 0 11 8 7 205 -90z m15339 2 c-38 -49 -114 -144 -169 -213 -55 -69 -132 -165 -170 -215 -38 -49 -94 -119 -125 -155 -31 -36 -96 -117 -145 -180 -126 -162 -277 -354 -340 -430 -29 -36 -128 -159 -219 -275 -92 -115 -195 -246 -230 -290 -35 -44 -91 -114 -124 -155 -33 -41 -105 -131 -161 -200 -56 -69 -145 -181 -199 -250 -53 -69 -142 -181 -197 -250 -55 -69 -147 -185 -205 -259 -162 -206 -175 -223 -499 -627 -167 -208 -371 -464 -454 -569 -83 -104 -185 -233 -227 -285 -41 -52 -86 -110 -99 -128 -13 -18 -25 -31 -28 -29 -2 3 5 47 16 98 11 52 36 169 55 260 19 91 42 195 50 230 9 35 50 224 92 419 41 195 105 490 140 655 36 165 85 395 109 512 25 117 56 259 70 315 13 57 47 213 75 348 59 292 65 312 88 332 9 9 109 59 222 113 220 104 348 166 695 335 218 106 324 157 420 200 28 13 118 56 200 97 83 42 229 112 325 158 96 45 249 119 340 163 91 44 264 127 385 184 121 58 252 121 290 141 39 20 74 36 78 37 5 0 -22 -39 -59 -87z m-16042 -7 c43 -57 366 -463 518 -650 88 -109 211 -263 347 -436 54 -69 171 -214 258 -323 88 -109 187 -234 220 -277 33 -42 105 -133 160 -202 55 -68 165 -206 245 -306 80 -101 219 -276 310 -389 91 -113 196 -244 233 -292 301 -381 334 -423 442 -556 55 -67 122 -151 149 -186 67 -86 110 -140 411 -519 142 -179 297 -374 344 -434 47 -60 111 -139 141 -175 31 -36 78 -95 105 -131 27 -36 68 -86 92 -112 74 -81 59 -83 -67 -9 -259 151 -483 301 -825 551 -141 103 -355 276 -495 400 -47 42 -110 96 -140 122 -77 65 -519 512 -631 639 -429 485 -746 923 -1069 1479 -269 463 -540 1066 -693 1545 -19 61 -49 150 -66 198 -43 124 -42 134 11 63z m16559 -216 c-180 -535 -377 -984 -648 -1478 -139 -254 -387 -651 -497 -797 -25 -33 -99 -132 -165 -220 -250 -335 -425 -539 -746 -864 -328 -332 -588 -564 -910 -812 -284 -218 -691 -490 -949 -634 l-69 -38 60 74 c33 41 106 133 162 204 57 72 142 180 191 240 49 61 153 191 231 290 246 310 379 478 437 549 32 39 82 102 112 142 49 64 217 275 350 439 43 53 250 314 389 490 26 33 83 104 127 159 43 54 99 124 124 156 25 32 142 179 260 326 119 148 247 309 285 358 39 49 104 130 145 180 41 51 98 121 125 156 28 35 75 96 106 134 30 39 91 116 135 172 43 55 133 167 199 249 66 81 138 172 160 200 175 230 450 564 453 548 1 -10 -29 -110 -67 -223z m-8240 -632 c10 -13 47 -59 81 -102 35 -43 122 -149 193 -236 202 -243 299 -360 439 -529 71 -86 166 -201 212 -256 45 -55 172 -208 281 -340 537 -648 684 -825 865 -1041 47 -55 109 -132 138 -170 30 -38 189 -231 353 -429 566 -680 617 -742 617 -756 0 -13 -6 -12 -53 13 -49 25 -219 101 -362 163 -55 24 -194 87 -310 140 -264 121 -493 225 -499 225 -2 0 -112 50 -243 111 -131 61 -267 124 -303 139 -36 15 -126 56 -200 90 -74 33 -196 88 -270 122 -74 33 -236 106 -360 163 -124 57 -263 120 -310 140 -47 21 -129 60 -182 86 -54 27 -103 49 -109 49 -6 0 -68 -28 -137 -61 -70 -34 -158 -76 -197 -94 -38 -18 -164 -79 -280 -135 -115 -56 -318 -154 -450 -217 -132 -63 -294 -141 -360 -173 -66 -32 -183 -88 -260 -125 -77 -38 -214 -104 -305 -147 -90 -44 -201 -97 -245 -118 -44 -21 -204 -98 -355 -172 -326 -160 -555 -268 -566 -268 -4 0 6 15 23 33 16 17 173 212 348 432 176 220 362 453 414 519 53 65 123 153 156 196 33 42 83 106 112 141 29 35 127 159 218 274 92 116 195 246 231 290 123 153 385 480 424 530 136 174 308 389 355 446 22 26 227 281 455 568 228 287 416 521 418 521 2 0 12 -10 23 -22z m63 -2944 c44 -20 162 -73 261 -119 164 -76 305 -139 580 -262 55 -25 156 -71 225 -103 69 -33 170 -79 225 -103 168 -75 493 -221 635 -287 74 -34 155 -70 180 -80 48 -19 251 -112 410 -187 52 -25 169 -78 260 -118 388 -171 726 -327 739 -340 16 -16 32 -7 -174 -95 -66 -29 -160 -67 -210 -85 -49 -18 -124 -46 -165 -63 -199 -79 -642 -218 -895 -281 -958 -239 -1882 -318 -2835 -240 -410 33 -694 73 -1095 154 -482 97 -996 253 -1482 448 -252 102 -249 100 -231 114 27 21 573 288 958 468 85 40 247 118 360 173 113 55 383 185 600 290 217 104 541 261 720 347 623 302 835 404 844 404 5 1 45 -15 90 -35z"/>

</g>

</svg>