<?xml version="1.0" encoding="utf-8"?>
<!-- Generator: Adobe Illustrator 21.1.0, SVG Export Plug-In . SVG Version: 6.00 Build 0)  -->
<svg version="1.1" id="Слой_1" xmlns="http://www.w3.org/2000/svg" xmlns:xlink="http://www.w3.org/1999/xlink" x="0px" y="0px"
	 viewBox="0 0 71 71" style="enable-background:new 0 0 71 71;" xml:space="preserve">
<style type="text/css">
	.st0{fill:#FFFFFF;}
	.st1{fill:none;stroke:#FFFFFF;stroke-miterlimit:10;}
</style>
<g>
	<g>
		<path class="st0" d="M18.9,14.2l19.2,17.6l0.7,0.6l0.7-0.6c2.9-2.6,5.3-3.9,7.2-3.9c2.3,0,3.4,2,3.9,3.3h-2.4h-0.6l-0.3,0.5
			L36.7,50.3h-5h-0.6l-0.3,0.5L27,57.3c-9.6-1.9-12.1-9.7-12.7-12.6h15.2H34l-4-1.9c-7.4-3.5-11.9-8.1-13.4-13.6
			C14.8,22.7,17.6,16.5,18.9,14.2 M18.7,12.6c0,0-13.5,19.7,10.8,31.1H13.1c0,0,1.2,12.5,14.4,14.7l4.2-7.1h5.6l11-19.2H52
			c0,0-1-5.3-5.3-5.3c-1.9,0-4.5,1.1-7.9,4.2L18.7,12.6L18.7,12.6z"/>
	</g>
	<g>
		<path class="st0" d="M33.2,16.5l3.3,9.2l-6.5-5.8L33.2,16.5 M33.6,14.6l-5.1,5.3L38.7,29L33.6,14.6L33.6,14.6z"/>
	</g>
	<line class="st1" x1="53.7" y1="31.8" x2="57.9" y2="31.8"/>
	<line class="st1" x1="53.1" y1="30.7" x2="56" y2="27.8"/>
	<line class="st1" x1="53.1" y1="33.2" x2="56" y2="36.2"/>
</g>
<circle class="st1" cx="35.5" cy="35.5" r="35"/>
</svg>
