<?xml version="1.0" encoding="utf-8"?>
<!-- Generator: Adobe Illustrator 21.1.0, SVG Export Plug-In . SVG Version: 6.00 Build 0)  -->
<svg version="1.1" id="Слой_1" xmlns="http://www.w3.org/2000/svg" xmlns:xlink="http://www.w3.org/1999/xlink" x="0px" y="0px"
	 viewBox="0 0 155 270" style="enable-background:new 0 0 155 270;" xml:space="preserve">
<style type="text/css">
	.st0{fill:#7D7D7D;}
</style>
<g>
	<g>
		<path class="st0" d="M109.6,198.5c-2.6,5.1-6.1,10.1-10.6,14.5c-16.8,16.8-40.7,20.9-55.7,9.6l-0.4-0.3l-0.5,0.5
			c-2.6,2.6-5.9,3.6-7.2,2.3c-1.3-1.3-0.3-4.6,2.3-7.2l0.5-0.5l-0.3-0.4c-11.3-14.9-7.2-38.8,9.6-55.7c4.4-4.4,9.4-8,14.5-10.6
			c-0.1-0.3-0.2-0.7-0.2-1c-5.3,2.7-10.4,6.3-15,10.9c-17,17-21.3,41.3-10,56.6c-3,3-3.9,6.7-2.1,8.5s5.5,0.8,8.5-2.1
			c15.3,11.3,39.6,7.1,56.6-10c4.6-4.6,8.2-9.7,10.9-15C110.2,198.7,109.9,198.6,109.6,198.5z"/>
	</g>
	<path class="st0" d="M81.8,178.6c-13.2-13.2-24.2-28.8-19.1-33.9c9.6-9.6,29.3-5.5,44,9.1s18.7,34.3,9.1,44
		C110.6,202.8,95,191.8,81.8,178.6z M106,154.4c-14.2-14.2-33.3-18.3-42.5-9.1c-4.4,4.4,6.3,19.7,19.1,32.5
		c12.8,12.8,28.1,23.5,32.5,19.1C124.3,187.7,120.2,168.6,106,154.4z"/>
	<path class="st0" d="M106.4,154.8h1.1c-1.1-2.9-0.4-6.4,1.9-8.7c3.2-3.2,8.5-3.2,11.8,0c2.4,2.4,3,5.8,1.9,8.7h1.1
		c1-3.2,0.3-6.9-2.3-9.4c-3.6-3.6-9.6-3.6-13.2,0C106.2,147.9,105.4,151.5,106.4,154.8z"/>
</g>
</svg>
