<?xml version="1.0" encoding="utf-8"?>
<!-- Generator: Adobe Illustrator 21.1.0, SVG Export Plug-In . SVG Version: 6.00 Build 0)  -->
<svg version="1.1" id="Слой_1" xmlns="http://www.w3.org/2000/svg" xmlns:xlink="http://www.w3.org/1999/xlink" x="0px" y="0px"
	 viewBox="0 0 28.8 12.5" style="enable-background:new 0 0 28.8 12.5;" xml:space="preserve">
<style type="text/css">
	.st0{fill:#7D7D7D;}
</style>
<g>
	<g>
		<path class="st0" d="M23.9,5.7c0.1,0,0.2-0.1,0.3-0.1c0.4-0.1,0.9-0.2,1.4-0.1c1.4,0.1,2.8,1.1,3.2,2.8c0.4,1.9-0.7,3.6-2.4,4.1
			c-0.3,0.1-0.6,0.1-1,0.1c-3.2,0-6.5,0-9.7,0c-0.1,0-0.1,0-0.2,0c-0.2,0-0.4-0.2-0.4-0.4c0-0.1,0-0.1,0-0.2c0-3.7,0-7.3,0-11
			c0-0.1,0-0.1,0-0.2c0-0.1,0.1-0.2,0.2-0.3c0.1,0,0.1-0.1,0.2-0.1c0.5-0.2,1-0.3,1.5-0.4c0.4,0,0.8-0.1,1.2,0
			c1.1,0.1,2.2,0.5,3.1,1.1c1.3,0.9,2.2,2.2,2.5,3.8C23.8,5.2,23.8,5.4,23.9,5.7z"/>
		<path class="st0" d="M13.1,12.5L13.1,12.5c-0.6,0-1-0.5-1-1v-9c0-0.6,0.5-1,1-1h0c0.6,0,1,0.5,1,1v9
			C14.1,12.1,13.7,12.5,13.1,12.5z"/>
		<path class="st0" d="M10.1,12.5L10.1,12.5c-0.6,0-1-0.5-1-1V5.7c0-0.6,0.5-1,1-1h0c0.6,0,1,0.5,1,1v5.8
			C11.1,12,10.7,12.5,10.1,12.5z"/>
		<path class="st0" d="M7.2,12.5L7.2,12.5c-0.6,0-1-0.5-1-1v-7c0-0.6,0.5-1,1-1h0c0.6,0,1,0.5,1,1v7C8.2,12.1,7.8,12.5,7.2,12.5z"/>
		<path class="st0" d="M4.1,12.5L4.1,12.5c-0.6,0-1-0.5-1-1V7.6c0-0.6,0.5-1,1-1h0c0.6,0,1,0.5,1,1v3.9C5.1,12.1,4.7,12.5,4.1,12.5z
			"/>
		<path class="st0" d="M1,12.5L1,12.5c-0.6,0-1-0.5-1-1v-2c0-0.6,0.5-1,1-1h0c0.6,0,1,0.5,1,1v2C2.1,12,1.6,12.5,1,12.5z"/>
	</g>
</g>
</svg>
