<?xml version="1.0" encoding="utf-8"?>
<!-- Generator: Adobe Illustrator 21.1.0, SVG Export Plug-In . SVG Version: 6.00 Build 0)  -->
<svg version="1.1" id="Слой_1" xmlns="http://www.w3.org/2000/svg" xmlns:xlink="http://www.w3.org/1999/xlink" x="0px" y="0px"
	 viewBox="0 0 44 44" style="enable-background:new 0 0 44 44;" xml:space="preserve">
<style type="text/css">
	.st0{fill:#7D7D7D;}
</style>
<path class="st0" d="M22,0C9.8,0,0,9.8,0,22s9.8,22,22,22s22-9.8,22-22S34.2,0,22,0z M9.7,27.2c0,0.6-0.5,1-1,1h0c-0.6,0-1-0.5-1-1
	v-2c0-0.6,0.5-1,1-1h0c0.6,0,1,0.5,1,1V27.2z M12.7,27.2c0,0.6-0.5,1-1,1h0c-0.6,0-1-0.5-1-1v-3.9c0-0.6,0.5-1,1-1h0
	c0.6,0,1,0.5,1,1V27.2z M15.8,27.2c0,0.6-0.5,1-1,1h0c-0.6,0-1-0.5-1-1v-7c0-0.6,0.5-1,1-1h0c0.6,0,1,0.5,1,1V27.2z M18.8,27.2
	c0,0.6-0.5,1-1,1h0c-0.6,0-1-0.5-1-1v-5.8c0-0.6,0.5-1,1-1h0c0.6,0,1,0.5,1,1V27.2z M21.7,27.2c0,0.6-0.5,1-1,1h0c-0.6,0-1-0.5-1-1
	v-9c0-0.6,0.5-1,1-1h0c0.6,0,1,0.5,1,1V27.2z M33.9,28.1c-0.3,0.1-0.6,0.1-1,0.1c-3.2,0-6.5,0-9.7,0c-0.1,0-0.1,0-0.2,0
	c-0.2,0-0.4-0.2-0.4-0.4c0-0.1,0-0.1,0-0.2c0-3.7,0-7.3,0-11c0-0.1,0-0.1,0-0.2c0-0.1,0.1-0.2,0.2-0.3c0.1,0,0.1-0.1,0.2-0.1
	c0.5-0.2,1-0.3,1.5-0.4c0.4,0,0.8-0.1,1.2,0c1.1,0.1,2.2,0.5,3.1,1.1c1.3,0.9,2.2,2.2,2.5,3.8c0.1,0.2,0.1,0.5,0.1,0.7
	c0.1,0,0.2-0.1,0.3-0.1c0.4-0.1,0.9-0.2,1.4-0.1c1.4,0.1,2.8,1.1,3.2,2.8C36.7,25.9,35.6,27.6,33.9,28.1z"/>
</svg>
