<?xml version="1.0" encoding="utf-8"?>
<!-- Generator: Adobe Illustrator 21.1.0, SVG Export Plug-In . SVG Version: 6.00 Build 0)  -->
<svg version="1.1" id="Слой_1" xmlns="http://www.w3.org/2000/svg" xmlns:xlink="http://www.w3.org/1999/xlink" x="0px" y="0px"
	 viewBox="0 0 24.8 16.5" style="enable-background:new 0 0 24.8 16.5;" xml:space="preserve">
<style type="text/css">
	.st0{fill:#7D7D7D;}
</style>
<g id="black_3_">
	<g id="slice_4_" transform="translate(-100.000000, -200.000000)">
	</g>
	<g id="Spotify" transform="translate(12.000000, 18.000000)">
		<path class="st0" d="M6.6-1.5c-0.2,0-0.3-0.1-0.4-0.1c0,0-0.2-0.1-0.5-0.3C5.2-2.2,4.7-2.4,4-2.7C2.6-3.3,0.7-4-1.4-4.2
			C-2-4.3-2.6-4.3-3.2-4.3C-5.9-4.4-8-4-8.9-3.8c-0.3,0.1-0.4,0.1-0.4,0.1c-0.5,0.1-1-0.1-1.1-0.6c-0.1-0.5,0.1-1,0.6-1.1
			c0.1,0,2.8-0.8,6.7-0.7c0.6,0,1.3,0.1,2,0.2C3.5-5.5,7-3.2,7.1-3.2c0.4,0.3,0.6,0.8,0.3,1.3C7.2-1.6,6.9-1.5,6.6-1.5z M9.9-6.9
			c-0.2,0.4-0.6,0.6-1,0.5c-0.2,0-0.4-0.1-0.6-0.2c0,0,0,0-0.1-0.1C8.1-6.7,7.9-6.8,7.7-6.9c-0.4-0.2-1-0.5-1.8-0.9
			C4.3-8.5,2.1-9.2-0.3-9.5c-0.7-0.1-1.5-0.1-2.2-0.2C-5.6-9.8-8-9.3-9-9.1C-9.3-9-9.5-9-9.5-9c-0.6,0.2-1.2-0.2-1.4-0.8
			c-0.2-0.6,0.2-1.2,0.8-1.4c0.1,0,3.2-1,7.7-0.8c0.7,0,1.5,0.1,2.3,0.2c5.4,0.6,9.5,3.2,9.6,3.3C10-8.2,10.2-7.5,9.9-6.9z M12.5-12
			c-0.3,0.4-0.7,0.7-1.2,0.6c-0.2,0-0.5-0.1-0.7-0.2c0,0,0,0-0.2-0.1c-0.1-0.1-0.3-0.2-0.6-0.3c-0.5-0.3-1.2-0.6-2.2-1
			c-1.8-0.8-4.4-1.7-7.3-2c-0.9-0.1-1.7-0.2-2.5-0.2c-4.3-0.1-7.4,0.6-8.1,0.8c-0.1,0-0.1,0-0.1,0c-0.7,0.2-1.5-0.2-1.7-0.9
			c-0.2-0.7,0.2-1.5,0.9-1.7c0.1,0,3.8-1.1,9.1-1c0.9,0,1.8,0.1,2.8,0.2C7.3-17,12-14,12.1-13.9C12.8-13.5,12.9-12.6,12.5-12z"/>
	</g>
</g>
</svg>
