<?xml version="1.0" encoding="utf-8"?>
<!-- Generator: Adobe Illustrator 21.1.0, SVG Export Plug-In . SVG Version: 6.00 Build 0)  -->
<svg version="1.1" id="Слой_1" xmlns="http://www.w3.org/2000/svg" xmlns:xlink="http://www.w3.org/1999/xlink" x="0px" y="0px"
	 viewBox="0 0 71 71" style="enable-background:new 0 0 71 71;" xml:space="preserve">
<style type="text/css">
	.st0{fill:none;stroke:#FFFFFF;stroke-miterlimit:10;}
	.st1{fill:#FFFFFF;stroke:#FFFFFF;stroke-miterlimit:10;}
</style>
<g>
	<circle class="st0" cx="35.5" cy="35.5" r="35"/>
	<line class="st0" x1="24.9" y1="23" x2="46.1" y2="23"/>
	<line class="st0" x1="24.9" y1="26" x2="46.1" y2="26"/>
	<line class="st0" x1="24.9" y1="29" x2="46.1" y2="29"/>
	<line class="st0" x1="24.9" y1="32" x2="46.1" y2="32"/>
	<line class="st0" x1="24.9" y1="35" x2="45.4" y2="35"/>
	<line class="st0" x1="24.9" y1="38" x2="42.1" y2="38"/>
	<line class="st0" x1="24.9" y1="41" x2="39.1" y2="41"/>
	<line class="st0" x1="24.9" y1="44" x2="36.6" y2="44"/>
	<line class="st0" x1="24.9" y1="47" x2="34.6" y2="47"/>
	<path class="st0" d="M47.1,45.1c-5.9,5.9-12,9.3-13.7,7.6c-1.5-1.5,1-6.3,5.5-11.5c0.5-0.6,1.7-1.8,1.7-1.8l0.8,1.4
		c0,0,0.1-2.3,0.3-2.5c2-1.9,4.2-3.8,6.5-5.5c0.1-0.1,0.8-0.6,0.8-0.6l0.9,1.6c0,0,0.6-2.6,0.9-2.8c3.4-2.3,6.3-3.6,7.2-2.8
		C59.6,29.9,53,39.2,47.1,45.1z"/>
	<line class="st0" x1="48.4" y1="37.8" x2="26" y2="60.1"/>
	<path class="st1" d="M37.7,42.7"/>
	<path class="st0" d="M47.1,45.1c-5.9,5.9-12,9.3-13.7,7.6c-1.5-1.5,1-6.3,5.5-11.5c0.5-0.6,1.7-1.8,1.7-1.8l0.8,1.4
		c0,0,0.1-2.3,0.3-2.5c2-1.9,4.2-3.8,6.5-5.5c0.1-0.1,0.8-0.6,0.8-0.6l0.9,1.6c0,0,0.1-0.4,0.2-0.9V16.2H20.9v38.6h29.2V41.9
		C49.1,43,48.1,44.1,47.1,45.1z"/>
</g>
</svg>
