<?xml version="1.0" encoding="utf-8"?>
<!-- Generator: Adobe Illustrator 21.1.0, SVG Export Plug-In . SVG Version: 6.00 Build 0)  -->
<svg version="1.1" id="Слой_1" xmlns="http://www.w3.org/2000/svg" xmlns:xlink="http://www.w3.org/1999/xlink" x="0px" y="0px"
	 viewBox="0 0 28 16" style="enable-background:new 0 0 28 16;" xml:space="preserve">
<style type="text/css">
	.st0{fill:#7D7D7D;}
</style>
<g>
	<path class="st0" d="M13.7,15.9h1.7c0,0,0.5-0.1,0.8-0.3c0.2-0.3,0.2-0.7,0.2-0.7s0-2.2,1-2.6c1-0.3,2.4,2.2,3.8,3.1
		C22.2,16.1,23,16,23,16l3.7-0.1c0,0,2-0.1,1-1.7c-0.1-0.1-0.5-1.1-2.8-3.2c-2.3-2.2-2-1.8,0.8-5.6c1.7-2.3,2.4-3.7,2.2-4.3
		c-0.2-0.6-1.5-0.4-1.5-0.4l-4.2,0c0,0-0.3,0-0.5,0.1c-0.2,0.1-0.4,0.5-0.4,0.5s-0.7,1.8-1.6,3.3C18,7.8,17.2,8,16.9,7.8
		c-0.7-0.5-0.5-1.9-0.5-2.8c0-3.1,0.5-4.4-0.9-4.7C15,0.1,14.7,0,13.5,0C12,0,10.7,0,10,0.4C9.5,0.6,9.1,1.1,9.4,1.2
		c0.3,0,0.9,0.2,1.2,0.6C11,2.4,11,3.7,11,3.7s0.2,3.6-0.6,4.1c-0.6,0.3-1.3-0.3-3-3.2C6.6,3.1,5.9,1.4,5.9,1.4S5.8,1.1,5.6,1
		C5.3,0.8,4.9,0.7,4.9,0.7l-4,0c0,0-0.6,0-0.8,0.3c-0.2,0.2,0,0.7,0,0.7s3.1,7.3,6.7,11C10,16.2,13.7,15.9,13.7,15.9L13.7,15.9z"/>
</g>
</svg>
