<?xml version="1.0" encoding="utf-8"?>
<!-- Generator: Adobe Illustrator 21.1.0, SVG Export Plug-In . SVG Version: 6.00 Build 0)  -->
<svg version="1.1" id="Слой_1" xmlns="http://www.w3.org/2000/svg" xmlns:xlink="http://www.w3.org/1999/xlink" x="0px" y="0px"
	 viewBox="0 0 44 44" style="enable-background:new 0 0 44 44;" xml:space="preserve">
<style type="text/css">
	.st0{fill:#7D7D7D;}
</style>
<path class="st0" d="M22,0C9.8,0,0,9.8,0,22s9.8,22,22,22s22-9.8,22-22S34.2,0,22,0z M34.7,31.2L31,31.2c0,0-0.8,0.2-1.9-0.6
	c-1.4-1-2.7-3.5-3.8-3.1c-1,0.3-1,2.6-1,2.6s0,0.5-0.2,0.7c-0.3,0.3-0.8,0.3-0.8,0.3h-1.7c0,0-3.7,0.2-7-3.2c-3.6-3.7-6.7-11-6.7-11
	s-0.2-0.5,0-0.7C8.3,16,8.9,16,8.9,16l4,0c0,0,0.4,0.1,0.6,0.3c0.2,0.2,0.3,0.5,0.3,0.5s0.6,1.6,1.5,3.1c1.7,2.9,2.5,3.5,3,3.2
	c0.8-0.5,0.6-4.1,0.6-4.1s0-1.3-0.4-1.9c-0.3-0.5-1-0.6-1.2-0.6c-0.2,0,0.1-0.6,0.6-0.8c0.7-0.4,2-0.4,3.5-0.4c1.2,0,1.5,0.1,2,0.2
	c1.4,0.3,0.9,1.6,0.9,4.7c0,1-0.2,2.4,0.5,2.8c0.3,0.2,1.1,0,2.9-3.2c0.9-1.5,1.6-3.3,1.6-3.3s0.1-0.3,0.4-0.5
	C30,16,30.3,16,30.3,16l4.2,0c0,0,1.3-0.2,1.5,0.4c0.2,0.6-0.5,2-2.2,4.3c-2.8,3.8-3.1,3.4-0.8,5.6c2.2,2.1,2.7,3.1,2.8,3.2
	C36.7,31.1,34.7,31.2,34.7,31.2z"/>
</svg>
