<?xml version="1.0" encoding="utf-8"?>
<!-- Generator: Adobe Illustrator 21.1.0, SVG Export Plug-In . SVG Version: 6.00 Build 0)  -->
<svg version="1.1" id="Слой_1" xmlns="http://www.w3.org/2000/svg" xmlns:xlink="http://www.w3.org/1999/xlink" x="0px" y="0px"
	 viewBox="0 0 25.2 17.3" style="enable-background:new 0 0 25.2 17.3;" xml:space="preserve">
<style type="text/css">
	.st0{fill:#7D7D7D;}
</style>
<g>
	<path class="st0" d="M24.6,2.7c-0.4-1-1.1-1.5-2.1-2c-1-0.4-5.4-0.7-9.9-0.7C8.2,0,3.7,0.3,2.7,0.7c-1,0.4-1.7,1-2.1,2
		C0.2,3.7,0,6.2,0,8.7c0,2.5,0.2,4.9,0.6,5.9c0.4,1,1.1,1.5,2.1,2c1,0.4,5.4,0.7,9.9,0.7c4.5,0,8.9-0.3,9.9-0.7c1-0.5,1.7-1,2.1-2
		c0.4-1,0.6-3.5,0.6-5.9C25.2,6.2,25,3.7,24.6,2.7z M9.5,13.4V3.2l8.7,5.5L9.5,13.4z"/>
</g>
</svg>
