<?xml version="1.0" encoding="utf-8"?>
<!-- Generator: Adobe Illustrator 21.1.0, SVG Export Plug-In . SVG Version: 6.00 Build 0)  -->
<svg version="1.1" id="Слой_1" xmlns="http://www.w3.org/2000/svg" xmlns:xlink="http://www.w3.org/1999/xlink" x="0px" y="0px"
	 viewBox="0 0 44 44" style="enable-background:new 0 0 44 44;" xml:space="preserve">
<style type="text/css">
	.st0{fill:#7D7D7D;}
</style>
<g>
	<path class="st0" d="M22,0C9.8,0,0,9.8,0,22s9.8,22,22,22s22-9.8,22-22S34.2,0,22,0z M34,27.9c-0.4,1-1.1,1.5-2.1,2
		c-1,0.4-5.4,0.7-9.9,0.7c-4.5,0-8.9-0.3-9.9-0.7c-1-0.5-1.7-1-2.1-2c-0.4-1-0.6-3.5-0.6-5.9c0-2.5,0.2-5,0.6-6c0.4-1,1.1-1.5,2.1-2
		c1-0.4,5.4-0.7,9.9-0.7c4.5,0,8.9,0.3,9.9,0.7c1,0.4,1.7,1,2.1,2c0.4,1,0.6,3.5,0.6,6C34.6,24.5,34.4,26.9,34,27.9z"/>
	<polygon class="st0" points="18.9,26.7 27.6,22 18.9,16.5 	"/>
</g>
</svg>
